<svg width="24" height="24" viewBox="0 0 24 24" fill="none" xmlns="http://www.w3.org/2000/svg">
<g clip-path="url(#clip0_13_3328)">
<path d="M8.69999 16.5999L11.9 23.8666C11.9 23.8999 11.8667 23.8999 11.8667 23.8999L5.63333 16.5999H8.69999ZM5.76666 9.8999H0.0333252C0.0333252 10.1332 0.399992 10.4332 0.399992 10.4332L5.63333 16.5999L7.73333 14.3666L5.76666 9.8999Z" fill="#0096D1"/>
<path d="M23.8333 10.1667C23.6667 10.3334 23.4 10.3334 23.2333 10.1667C23.1667 10.1001 23.1 9.96675 23.1 9.86675H18.2L15.1333 6.53341L18.3333 3.16675L23.7667 9.53341C23.7667 9.53341 23.7667 9.56675 23.8 9.56675H23.8333C24 9.76675 24 10.0334 23.8333 10.1667ZM11.9667 9.90008L15.1 6.56675L11.9667 3.16675L8.83334 6.56675L11.9667 9.90008Z" fill="#76DFFF"/>
<path d="M12.1 23.8999C12.0667 23.9332 12.0333 23.8999 12.0667 23.8666L15.2667 16.5999H18.3333L12.1 23.8999ZM16.2333 14.3666L18.3333 16.5999L23.8 10.1999C23.8 10.1999 23.9333 9.9999 23.9333 9.8999H18.2L16.2333 14.3666Z" fill="#59CAFC"/>
<path d="M8.83333 6.56665L5.76666 9.89998H11.9667L8.83333 6.56665Z" fill="#27C7FF"/>
<path d="M15.1333 6.56665L11.9667 9.89998H18.2L15.1333 6.56665Z" fill="#B0E9FF"/>
<path d="M8.83333 6.56662L5.76666 9.89995H0.0333252C0.0333252 9.89995 0.0666585 9.69995 0.199992 9.56662L5.46666 3.39995C5.49999 3.36662 5.53333 3.33328 5.56666 3.33328C5.63333 3.23328 5.73333 3.19995 5.86666 3.19995C6.09999 3.19995 6.26666 3.39995 6.26666 3.59995C6.26666 3.66662 6.23333 3.73328 6.19999 3.79995L8.83333 6.56662ZM11.9667 9.89995L16.2333 14.4L18.2 9.89995H11.9667ZM5.76666 9.89995L7.73333 14.4L12 9.89995H5.76666ZM8.69999 16.6L11.9333 23.9333C11.9667 23.9666 12 23.9666 12.0333 23.9333L15.2667 16.6H8.69999ZM16.2333 14.3666L15.2667 16.6H18.3333L16.2333 14.3666Z" fill="#00B1FF"/>
<path d="M15.1333 6.56675L11.9667 3.16675H18.3333L15.1333 6.56675ZM11.9667 3.16675H6.00001C5.86668 3.16675 5.60001 3.16675 5.70001 3.26675L8.83334 6.56675L11.9667 3.16675Z" fill="#59CAFC"/>
<path d="M7.73333 14.3667L5.63333 16.6H8.7L7.73333 14.3667Z" fill="#0074A8"/>
<path d="M7.73334 14.3666L8.7 16.5999H15.2667L16.2333 14.3666L11.9667 9.8999L7.73334 14.3666Z" fill="#0096D1"/>
<path d="M17.5667 9.9666C18.4667 10.1999 19.1667 10.8999 19.4 11.7999C19.4333 11.8999 19.5333 11.8999 19.5667 11.7999C19.8 10.8999 20.5 10.1999 21.4 9.9666C21.5 9.93327 21.5 9.83327 21.4 9.79993C20.5 9.5666 19.8 8.8666 19.5667 7.9666C19.5333 7.8666 19.4333 7.8666 19.4 7.9666C19.1667 8.8666 18.4667 9.5666 17.5667 9.79993C17.4667 9.83327 17.4667 9.93327 17.5667 9.9666Z" fill="white"/>
<path d="M14.2 1.19993C14.6667 1.33327 15.0333 1.69994 15.1667 2.1666C15.1667 2.19993 15.2333 2.19993 15.2333 2.1666C15.3667 1.69994 15.7333 1.33327 16.2 1.19993C16.2333 1.19993 16.2333 1.13327 16.2 1.13327C15.7333 0.999935 15.3667 0.633268 15.2333 0.166602C15.2333 0.133268 15.1667 0.133268 15.1667 0.166602C15.0333 0.633268 14.6667 0.999935 14.2 1.13327C14.1667 1.13327 14.1667 1.19993 14.2 1.19993Z" fill="#B0E9FF"/>
</g>
<defs>
<clipPath id="clip0_13_3328">
<rect width="24" height="24" fill="white"/>
</clipPath>
</defs>
</svg>
