<svg width="100" height="100" viewBox="0 0 100 100" fill="none" xmlns="http://www.w3.org/2000/svg">
<path d="M77.0234 39.9688C73.7188 40.6876 70.8672 42.5313 69.5313 45.711C68.7266 47.6407 67.6016 52.6251 64.5156 51.336C63.0391 50.7266 63.0625 48.6094 63.2344 47.2891C63.6016 44.5782 64.8203 42.1016 65.6563 39.5235C66.5156 36.8516 67.2578 34.1641 67.7891 31.3985C69.5703 22.2422 69.0781 11.6954 62.6016 4.37505C61.5078 3.12505 58.75 0.234429 56.9297 0.171929C55.8047 0.140679 56.9141 1.4688 57.2266 1.91412C57.8594 2.82818 58.3906 3.82037 58.7969 4.85943C63.5859 17.0782 51.7813 26.3829 44.0234 33.6251C40.3047 37.1016 37.3359 40.7891 34.6641 45.0938C34.3984 45.5079 33.8125 46.8985 33.0547 46.6094C32.1563 46.2657 32.0625 44.211 31.7813 43.4454C31.25 41.9766 30.4297 40.3751 29.375 39.2266C27.3359 36.9922 24.4844 35.4844 21.3984 35.6876C21.2813 35.6954 20.9453 35.7501 20.5313 35.8438C19.8828 35.9844 18.1484 36.211 18.6172 37.2579C18.8594 37.7969 19.5703 37.7501 20.0781 37.8985C26.5938 39.8985 26.4453 46.7266 25.3906 52.211C23.4844 62.1954 18.2031 71.6329 21.9531 81.8985C26.375 94.0001 40.2188 101.555 52.7813 99.4766C56.2109 98.9141 60.1641 97.8047 63.2422 96.1485C66.5156 94.3829 70.1016 91.9688 72.6563 89.2501C75.9453 85.7579 78.0391 81.2813 78.6563 76.5391C79.3828 71.0547 77.6328 65.8829 76.0391 60.7032C74.1172 54.4532 71.9063 44.2501 79.8906 41.1954C80.2813 41.0391 81.0625 40.9219 81.3359 40.5079C82.3516 38.9922 77.4766 39.8751 77.0234 39.9688Z" fill="#ED6C30"/>
<path d="M53.2266 82.8671C54.8828 84.2578 57.2031 83.5781 58.7656 82.3906C59.6016 81.7578 60.3203 80.9453 60.7891 80C60.9844 79.5937 61.2109 79.0781 61.2109 78.6171C61.2109 78 60.8438 77.3906 61 76.7578C62.3125 76.5 63.9375 80.2734 64.1016 81.1484C65.4141 88.0468 58.9141 93.7343 52.6406 94.8359C42.0547 96.6875 35.9688 87.414 37.1875 79.1796C37.9453 74.0546 41.3828 70.5312 44.8828 67.0156C47.7813 64.1015 50.4688 61.6015 51.4063 57.8125C51.5703 57.1406 51.5313 56.1093 51.3359 55.4453C51.1719 54.875 50.8594 54.3515 50.8438 53.7343C50.7969 52.4374 52.0547 54.1328 52.3438 54.4609C55.8281 58.3906 56.8203 64.1953 55.8906 69.2734C55.2891 72.5546 52.9453 74.8984 52.125 78.039C51.6484 79.8281 51.6953 81.5703 53.2266 82.8671Z" fill="#FCC21B"/>
</svg>
