<svg width="24" height="24" viewBox="0 0 24 24" fill="none" xmlns="http://www.w3.org/2000/svg">
<g clip-path="url(#clip0_13_3427)">
<path d="M18.4854 9.59245C17.6922 9.76495 17.0079 10.2075 16.6872 10.9706C16.4941 11.4337 16.2241 12.6299 15.4835 12.3206C15.1291 12.1743 15.1347 11.6662 15.176 11.3493C15.2641 10.6987 15.5566 10.1043 15.7572 9.48558C15.9635 8.84433 16.1416 8.19933 16.2691 7.53559C16.6966 5.33809 16.5785 2.80685 15.0241 1.04999C14.7616 0.749986 14.0998 0.056239 13.6629 0.0412391C13.3929 0.0337391 13.6591 0.352488 13.7341 0.459363C13.886 0.678737 14.0135 0.916861 14.111 1.16623C15.2604 4.09872 12.4273 6.33184 10.5654 8.06996C9.67289 8.90433 8.9604 9.78933 8.31915 10.8224C8.2554 10.9218 8.11477 11.2556 7.9329 11.1862C7.71728 11.1037 7.69478 10.6106 7.62728 10.4268C7.49978 10.0743 7.3029 9.68995 7.04978 9.41433C6.56041 8.87808 5.87603 8.51621 5.13541 8.56496C5.10729 8.56683 5.02666 8.57996 4.92729 8.60246C4.77166 8.63621 4.35541 8.69058 4.46791 8.94183C4.52604 9.07121 4.69666 9.05996 4.81854 9.09558C6.38228 9.57558 6.34666 11.2143 6.09353 12.5306C5.63603 14.9268 4.36854 17.1918 5.26854 19.6555C6.32978 22.5599 9.65227 24.373 12.6673 23.8743C13.4904 23.7393 14.4391 23.473 15.1779 23.0755C15.9635 22.6518 16.8241 22.0724 17.4372 21.4199C18.2266 20.5818 18.7291 19.5074 18.8772 18.3693C19.0516 17.0531 18.6316 15.8118 18.2491 14.5687C17.7879 13.0687 17.2572 10.6199 19.1735 9.88683C19.2672 9.84933 19.4547 9.8212 19.5204 9.72183C19.7641 9.35808 18.5941 9.56995 18.4854 9.59245Z" fill="#ED6C30"/>
<path d="M12.7745 19.8882C13.172 20.222 13.7289 20.0588 14.1039 19.7738C14.3045 19.622 14.477 19.427 14.5895 19.2001C14.6364 19.1026 14.6908 18.9788 14.6908 18.8682C14.6908 18.7201 14.6026 18.5738 14.6401 18.422C14.9551 18.3601 15.3451 19.2657 15.3845 19.4757C15.6995 21.1313 14.1395 22.4963 12.6339 22.7607C10.0933 23.2051 8.63265 20.9794 8.92515 19.0032C9.10703 17.7732 9.93202 16.9276 10.772 16.0838C11.4676 15.3845 12.1126 14.7845 12.3376 13.8751C12.377 13.7138 12.3676 13.4664 12.3208 13.307C12.2814 13.1701 12.2064 13.0445 12.2026 12.8964C12.1914 12.5851 12.4933 12.992 12.5626 13.0707C13.3989 14.0138 13.637 15.407 13.4139 16.6257C13.2695 17.4132 12.707 17.9757 12.5101 18.7295C12.3958 19.1588 12.407 19.577 12.7745 19.8882Z" fill="#FCC21B"/>
</g>
<defs>
<clipPath id="clip0_13_3427">
<rect width="23.8029" height="23.8029" fill="white" transform="scale(1.00828)"/>
</clipPath>
</defs>
</svg>
