<svg width="24" height="24" viewBox="0 0 24 24" fill="none" xmlns="http://www.w3.org/2000/svg">
<g clip-path="url(#clip0_13_3432)">
<path d="M18.4856 9.59245C17.6925 9.76495 17.0081 10.2075 16.6875 10.9706C16.4944 11.4337 16.2244 12.6299 15.4837 12.3206C15.1294 12.1743 15.135 11.6662 15.1762 11.3493C15.2644 10.6987 15.5569 10.1043 15.7575 9.48558C15.9637 8.84433 16.1419 8.19933 16.2694 7.53559C16.6969 5.33809 16.5787 2.80685 15.0244 1.04999C14.7619 0.749986 14.1 0.056239 13.6631 0.0412391C13.3931 0.0337391 13.6594 0.352488 13.7344 0.459363C13.8862 0.678737 14.0137 0.916861 14.1112 1.16623C15.2606 4.09872 12.4275 6.33184 10.5656 8.06996C9.67314 8.90433 8.96064 9.78933 8.31939 10.8224C8.25564 10.9218 8.11502 11.2556 7.93315 11.1862C7.71752 11.1037 7.69502 10.6106 7.62752 10.4268C7.50002 10.0743 7.30315 9.68995 7.05002 9.41433C6.56065 8.87808 5.87628 8.51621 5.13566 8.56496C5.10753 8.56683 5.02691 8.57996 4.92753 8.60246C4.77191 8.63621 4.35566 8.69058 4.46816 8.94183C4.52628 9.07121 4.69691 9.05996 4.81878 9.09558C6.38253 9.57558 6.3469 11.2143 6.09378 12.5306C5.63628 14.9268 4.36878 17.1918 5.26878 19.6555C6.33003 22.5599 9.65251 24.373 12.6675 23.8743C13.4906 23.7393 14.4394 23.473 15.1781 23.0755C15.9637 22.6518 16.8244 22.0724 17.4375 21.4199C18.2269 20.5818 18.7294 19.5074 18.8775 18.3693C19.0519 17.0531 18.6319 15.8118 18.2494 14.5687C17.7881 13.0687 17.2575 10.6199 19.1737 9.88683C19.2675 9.84933 19.455 9.8212 19.5206 9.72183C19.7644 9.35808 18.5944 9.56995 18.4856 9.59245Z" fill="#ED6C30"/>
<path d="M12.7745 19.8882C13.172 20.222 13.7289 20.0588 14.1039 19.7738C14.3045 19.622 14.477 19.427 14.5895 19.2001C14.6364 19.1026 14.6908 18.9788 14.6908 18.8682C14.6908 18.7201 14.6026 18.5738 14.6401 18.422C14.9551 18.3601 15.3451 19.2657 15.3845 19.4757C15.6995 21.1313 14.1395 22.4963 12.6339 22.7607C10.0933 23.2051 8.63265 20.9794 8.92515 19.0032C9.10703 17.7732 9.93202 16.9276 10.772 16.0838C11.4676 15.3845 12.1126 14.7845 12.3376 13.8751C12.377 13.7138 12.3676 13.4664 12.3208 13.307C12.2814 13.1701 12.2064 13.0445 12.2026 12.8964C12.1914 12.5851 12.4933 12.992 12.5626 13.0707C13.3989 14.0138 13.637 15.407 13.4139 16.6257C13.2695 17.4132 12.707 17.9757 12.5101 18.7295C12.3958 19.1588 12.407 19.577 12.7745 19.8882Z" fill="#FCC21B"/>
</g>
<defs>
<clipPath id="clip0_13_3432">
<rect width="23.8029" height="23.8029" fill="white" transform="scale(1.00828)"/>
</clipPath>
</defs>
</svg>
